<svg width="195" height="29" viewBox="0 0 195 29" fill="none" xmlns="http://www.w3.org/2000/svg">
<path d="M11.8815 28.6333C9.72577 28.6333 7.64526 28.3701 5.63995 27.8437C3.6597 27.2923 2.04291 26.5904 0.789593 25.7382L3.23357 20.2486C4.41169 21.0006 5.76528 21.6273 7.29433 22.1286C8.84845 22.6049 10.39 22.843 11.9191 22.843C12.9468 22.843 13.774 22.7553 14.4007 22.5798C15.0273 22.3793 15.4785 22.1286 15.7543 21.8278C16.055 21.5019 16.2054 21.1259 16.2054 20.6998C16.2054 20.0982 15.9297 19.6219 15.3783 19.271C14.8268 18.9201 14.1124 18.6318 13.2351 18.4062C12.3577 18.1806 11.3802 17.955 10.3023 17.7294C9.24951 17.5038 8.18419 17.2156 7.10633 16.8646C6.05354 16.5137 5.08849 16.0625 4.21116 15.5111C3.33384 14.9345 2.61944 14.1951 2.06798 13.2927C1.51652 12.3652 1.24079 11.1996 1.24079 9.79591C1.24079 8.21672 1.66692 6.78794 2.51918 5.50955C3.3965 4.23116 4.69996 3.20344 6.42954 2.42638C8.15912 1.64932 10.3148 1.26079 12.8967 1.26079C14.6263 1.26079 16.3182 1.46132 17.9726 1.86238C19.6521 2.23838 21.1435 2.80237 22.447 3.55436L20.1534 9.08151C18.9001 8.40472 17.6593 7.90339 16.431 7.57753C15.2028 7.2266 14.0121 7.05113 12.8591 7.05113C11.8314 7.05113 11.0042 7.16393 10.3775 7.38953C9.75084 7.59006 9.29965 7.86579 9.02391 8.21672C8.74818 8.56765 8.61032 8.96871 8.61032 9.41991C8.61032 9.99644 8.87352 10.4602 9.39991 10.8111C9.95137 11.137 10.6658 11.4127 11.5431 11.6383C12.4455 11.8388 13.4231 12.0519 14.4759 12.2775C15.5537 12.5031 16.619 12.7913 17.6718 13.1423C18.7497 13.4681 19.7273 13.9193 20.6046 14.4959C21.4819 15.0473 22.1838 15.7868 22.7102 16.7142C23.2616 17.6166 23.5374 18.7572 23.5374 20.1358C23.5374 21.6649 23.0987 23.0811 22.2214 24.3846C21.3691 25.663 20.0782 26.6907 18.3486 27.4677C16.6441 28.2448 14.4884 28.6333 11.8815 28.6333ZM34.609 28.4453C32.0021 28.4453 29.9717 27.8061 28.5179 26.5277C27.064 25.2243 26.3371 23.2691 26.3371 20.6622V3.17837H33.481V20.587C33.481 21.3139 33.6815 21.8905 34.0826 22.3166C34.4837 22.7177 34.9975 22.9182 35.6242 22.9182C36.4765 22.9182 37.2034 22.7051 37.805 22.279L39.5722 27.2797C38.9706 27.6808 38.2311 27.9691 37.3538 28.1445C36.4765 28.3451 35.5615 28.4453 34.609 28.4453ZM23.3667 13.8191V8.47992H38.1434V13.8191H23.3667ZM53.6444 28.1069V24.3094L53.1556 23.3694V16.3758C53.1556 15.2479 52.8047 14.3831 52.1028 13.7815C51.426 13.1548 50.3356 12.8415 48.8317 12.8415C47.8541 12.8415 46.8639 13.0044 45.8613 13.3303C44.8586 13.6311 44.0064 14.0572 43.3045 14.6087L40.8981 9.75831C42.0512 9.00631 43.4298 8.42979 45.0341 8.02872C46.6634 7.60259 48.2802 7.38953 49.8844 7.38953C53.1932 7.38953 55.75 8.15406 57.5548 9.68311C59.3846 11.1871 60.2995 13.5559 60.2995 16.7894V28.1069H53.6444ZM47.6285 28.4453C45.9991 28.4453 44.6205 28.1696 43.4925 27.6181C42.3645 27.0667 41.4997 26.3147 40.8981 25.3622C40.3216 24.4096 40.0333 23.3443 40.0333 22.1662C40.0333 20.9129 40.3467 19.835 40.9733 18.9326C41.6251 18.0052 42.6152 17.3033 43.9437 16.827C45.2722 16.3257 46.9893 16.075 49.0949 16.075H53.9076V19.7974H50.0724C48.9194 19.7974 48.1047 19.9854 47.6285 20.3614C47.1773 20.7374 46.9517 21.2387 46.9517 21.8654C46.9517 22.4921 47.1898 22.9934 47.6661 23.3694C48.1423 23.7454 48.7941 23.9334 49.6212 23.9334C50.3983 23.9334 51.1002 23.7454 51.7268 23.3694C52.3786 22.9683 52.8548 22.3667 53.1556 21.5646L54.1332 24.1966C53.7572 25.6003 53.0177 26.6656 51.9148 27.3925C50.837 28.0944 49.4082 28.4453 47.6285 28.4453ZM63.6809 28.1069V7.72792H70.4864V13.6687L69.4712 11.9767C70.0728 10.4476 71.0504 9.30711 72.404 8.55512C73.7576 7.77806 75.3994 7.38953 77.3295 7.38953V13.8191C77.0037 13.7689 76.7154 13.7439 76.4648 13.7439C76.2392 13.7188 75.9885 13.7063 75.7128 13.7063C74.2589 13.7063 73.0808 14.1073 72.1784 14.9095C71.276 15.6865 70.8248 16.9649 70.8248 18.7446V28.1069H63.6809ZM79.4513 28.1069V1.78718H92.912C96.3711 1.78718 98.953 2.42638 100.657 3.70476C102.362 4.95808 103.214 6.61247 103.214 8.66792C103.214 10.0215 102.851 11.2122 102.124 12.2399C101.422 13.2425 100.419 14.0447 99.1159 14.6463C97.8375 15.2228 96.3085 15.5111 94.5287 15.5111L95.2807 13.7063C97.1356 13.7063 98.7524 13.9945 100.131 14.5711C101.51 15.1225 102.575 15.9372 103.327 17.015C104.104 18.0678 104.493 19.3587 104.493 20.8878C104.493 23.1688 103.565 24.9486 101.71 26.227C99.8804 27.4803 97.1983 28.1069 93.6639 28.1069H79.4513ZM86.8208 22.7302H93.0624C94.3407 22.7302 95.3058 22.5171 95.9575 22.091C96.6343 21.6398 96.9727 20.963 96.9727 20.0606C96.9727 19.1582 96.6343 18.494 95.9575 18.0678C95.3058 17.6166 94.3407 17.391 93.0624 17.391H86.2944V12.2399H91.9344C93.1877 12.2399 94.1277 12.0268 94.7543 11.6007C95.381 11.1746 95.6943 10.5354 95.6943 9.68311C95.6943 8.83085 95.381 8.20419 94.7543 7.80313C94.1277 7.377 93.1877 7.16393 91.9344 7.16393H86.8208V22.7302ZM115.455 28.4453C113.801 28.4453 112.309 28.1195 110.981 27.4677C109.677 26.816 108.649 25.8008 107.897 24.4222C107.171 23.0184 106.807 21.2513 106.807 19.1206V7.72792H113.951V17.955C113.951 19.5342 114.239 20.6622 114.816 21.339C115.417 22.0158 116.257 22.3542 117.335 22.3542C118.037 22.3542 118.676 22.1913 119.253 21.8654C119.829 21.5395 120.293 21.0257 120.644 20.3238C120.995 19.5969 121.17 18.6694 121.17 17.5414V7.72792H128.314V28.1069H121.509V22.3542L122.825 23.971C122.123 25.475 121.107 26.6029 119.779 27.3549C118.45 28.0819 117.009 28.4453 115.455 28.4453ZM142.203 28.4453C139.947 28.4453 137.929 27.9941 136.149 27.0917C134.395 26.1894 133.016 24.9486 132.013 23.3694C131.011 21.7651 130.509 19.9353 130.509 17.8798C130.509 15.8244 131.011 14.0071 132.013 12.4279C133.016 10.8487 134.395 9.62044 136.149 8.74312C137.929 7.84073 139.947 7.38953 142.203 7.38953C144.509 7.38953 146.502 7.87832 148.181 8.85592C149.861 9.83351 151.051 11.2122 151.753 12.9919L146.226 15.8118C145.75 14.8593 145.161 14.17 144.459 13.7439C143.757 13.2927 142.992 13.0671 142.165 13.0671C141.338 13.0671 140.586 13.2551 139.909 13.6311C139.232 14.0071 138.693 14.5585 138.292 15.2855C137.916 15.9873 137.728 16.8521 137.728 17.8798C137.728 18.9326 137.916 19.8225 138.292 20.5494C138.693 21.2763 139.232 21.8278 139.909 22.2038C140.586 22.5798 141.338 22.7678 142.165 22.7678C142.992 22.7678 143.757 22.5547 144.459 22.1286C145.161 21.6774 145.75 20.9755 146.226 20.023L151.753 22.843C151.051 24.6227 149.861 26.0014 148.181 26.9789C146.502 27.9565 144.509 28.4453 142.203 28.4453ZM159.182 24.347L159.37 15.8118L167.68 7.72792H176.14L166.928 17.2406L163.281 20.1734L159.182 24.347ZM153.241 28.1069V0.207996H160.385V28.1069H153.241ZM168.206 28.1069L161.965 20.2862L166.401 14.7967L176.854 28.1069H168.206ZM184.599 28.4453C182.87 28.4453 181.178 28.2448 179.523 27.8437C177.894 27.4427 176.578 26.9413 175.575 26.3398L177.719 21.4518C178.671 22.0283 179.787 22.4921 181.065 22.843C182.343 23.1688 183.597 23.3318 184.825 23.3318C186.028 23.3318 186.855 23.2064 187.306 22.9558C187.783 22.7051 188.021 22.3667 188.021 21.9406C188.021 21.5395 187.795 21.2513 187.344 21.0758C186.918 20.8753 186.341 20.7249 185.614 20.6246C184.913 20.5243 184.136 20.4115 183.283 20.2862C182.431 20.1609 181.566 19.9979 180.689 19.7974C179.837 19.5718 179.047 19.246 178.32 18.8198C177.618 18.3686 177.054 17.767 176.628 17.015C176.202 16.263 175.989 15.3105 175.989 14.1575C175.989 12.854 176.365 11.701 177.117 10.6983C177.894 9.67057 179.022 8.86845 180.501 8.29192C181.98 7.69033 183.785 7.38953 185.915 7.38953C187.344 7.38953 188.785 7.53993 190.239 7.84072C191.718 8.11646 192.959 8.54259 193.962 9.11911L191.818 13.9695C190.816 13.3929 189.813 13.0044 188.81 12.8039C187.808 12.5783 186.855 12.4655 185.953 12.4655C184.75 12.4655 183.897 12.6033 183.396 12.8791C182.92 13.1548 182.682 13.4932 182.682 13.8943C182.682 14.2953 182.895 14.6087 183.321 14.8343C183.747 15.0348 184.311 15.1977 185.013 15.3231C185.74 15.4233 186.529 15.5361 187.382 15.6615C188.234 15.7617 189.086 15.9246 189.938 16.1502C190.816 16.3758 191.605 16.7142 192.307 17.1654C193.034 17.5916 193.611 18.1806 194.037 18.9326C194.463 19.6595 194.676 20.5995 194.676 21.7526C194.676 23.0059 194.287 24.1339 193.51 25.1366C192.758 26.1392 191.63 26.9413 190.126 27.5429C188.647 28.1445 186.805 28.4453 184.599 28.4453Z" fill="url(#paint0_linear_44_122)"/>
<defs>
<linearGradient id="paint0_linear_44_122" x1="195" y1="6.62146" x2="54.1692" y2="83.4275" gradientUnits="userSpaceOnUse">
<stop stop-color="#237249"/>
<stop offset="1" stop-color="#35C66B"/>
</linearGradient>
</defs>
</svg>
